<svg version="1.1" id="Layer_1" xmlns="http://www.w3.org/2000/svg" xmlns:xlink="http://www.w3.org/1999/xlink" x="0px" y="0px"
	 width="100%" viewBox="0 0 1408 768" enable-background="new 0 0 1408 768" xml:space="preserve">
<path fill="#FFFFFF" opacity="1.000000" stroke="none" 
	d="
M1069.000000,769.000000 
	C712.707458,769.000000 356.914948,769.000000 1.061210,769.000000 
	C1.061210,513.070190 1.061210,257.140350 1.061210,1.105247 
	C470.209320,1.105247 939.418701,1.105247 1408.813965,1.105247 
	C1408.813965,256.999878 1408.813965,512.999939 1408.813965,769.000000 
	C1295.806763,769.000000 1182.653320,769.000000 1069.000000,769.000000 
M536.582092,253.044983 
	C536.774109,252.750076 536.966125,252.455170 537.811584,251.977982 
	C548.931091,240.963852 560.073608,229.972839 571.163025,218.928543 
	C580.586243,209.543686 589.948181,200.097397 598.696411,191.321228 
	C619.732666,211.708206 640.447998,231.784180 661.163269,251.860138 
	C660.953979,252.255188 660.744690,252.650253 660.535400,253.045303 
	C620.500427,253.045303 580.465393,253.045303 540.192871,253.045303 
	C540.192871,257.388062 540.192871,261.180878 540.033386,265.905151 
	C540.002563,401.760406 539.970520,537.615662 539.956482,673.470886 
	C539.956360,674.863037 540.192444,676.255188 540.383118,678.365845 
	C541.980652,677.100159 542.974915,676.312439 544.423401,675.372192 
	C544.757935,675.045044 545.092529,674.717957 546.071167,674.169006 
	C584.395264,646.824097 622.731750,619.496460 660.986450,592.054810 
	C662.193848,591.188721 663.218201,589.146729 663.218201,587.652954 
	C663.217773,552.374878 663.064697,517.096802 663.181519,481.253601 
	C662.786499,479.861053 662.391479,478.468475 661.930359,476.994751 
	C661.930359,476.994751 661.849548,477.061340 661.120972,476.792328 
	C640.898621,476.792328 620.676270,476.792328 600.121887,476.792328 
	C600.121887,427.521301 600.121887,379.318420 601.042786,331.068787 
	C621.646057,331.068787 642.249268,331.068787 663.459229,331.068787 
	C663.459229,328.828979 663.459900,327.040619 663.459106,325.252258 
	C663.449280,303.134705 663.390564,281.016876 663.517029,258.900085 
	C663.527649,257.034119 664.778625,255.175201 666.304688,253.483795 
	C677.947083,253.465057 689.589600,253.475052 701.231812,253.420731 
	C718.022034,253.342392 734.812012,253.217331 752.421692,253.434799 
	C763.078979,253.327026 773.736267,253.219269 785.261780,253.319214 
	C791.827698,253.264084 798.393555,253.208969 805.548462,253.433533 
	C807.043152,253.332962 808.537903,253.232391 810.814148,252.706299 
	C810.911194,251.056015 811.090576,249.405838 811.092712,247.755432 
	C811.121399,225.143890 811.130249,202.532318 811.134399,179.920761 
	C811.137146,164.957245 811.129272,149.993713 811.113647,135.030197 
	C811.111389,132.915298 811.630188,130.311401 807.038391,131.024673 
	C738.708008,131.023621 670.377625,131.021606 602.047241,131.030960 
	C601.053467,131.031097 600.059692,131.173141 598.364075,131.100403 
	C597.891052,131.150101 597.417969,131.199799 596.144165,131.070724 
	C594.783752,131.130081 593.423340,131.189438 591.154785,131.090088 
	C588.084045,131.143204 585.013367,131.196320 581.029846,131.066788 
	C572.864929,131.051163 564.699951,131.004440 556.535095,131.025879 
	C534.045410,131.084946 511.555695,131.172546 488.132690,131.090683 
	C454.882904,131.090683 421.633118,131.090683 388.253265,131.090683 
	C388.122192,132.525101 387.984558,133.330536 387.984222,134.136017 
	C387.967987,172.613373 387.954590,211.090759 388.000061,249.568054 
	C388.001465,250.754364 388.627319,251.939941 389.320984,253.409683 
	C389.897461,253.335953 390.473938,253.262222 391.971710,253.339325 
	C420.579346,253.365143 449.186981,253.432343 477.794556,253.401123 
	C494.752045,253.382614 511.709351,253.208801 529.386963,253.395126 
	C531.616333,253.281631 533.845764,253.168137 536.024109,252.994293 
	C536.024109,252.994293 536.044250,253.070618 536.582092,253.044983 
M635.231812,437.815155 
	C635.836914,438.800446 636.442078,439.785706 637.837891,440.901642 
	C638.902893,440.864838 639.967834,440.828033 641.946960,440.984802 
	C679.647888,441.002411 717.348877,441.031250 755.049805,441.026642 
	C761.354370,441.025879 767.658997,440.879761 774.801819,440.926514 
	C776.211304,440.884399 777.620728,440.842285 779.946045,440.986725 
	C804.621704,440.942017 829.297424,440.897278 854.865173,440.976685 
	C857.554932,441.022278 860.244690,441.067871 862.997559,441.001617 
	C862.997559,441.001617 862.886475,441.066315 862.951172,441.992004 
	C862.951172,467.541840 862.951172,493.091644 862.951172,520.061707 
	C911.425598,481.142578 958.747498,443.148804 1006.773682,404.589600 
	C958.721130,366.120758 911.284180,328.144745 862.833008,289.356812 
	C862.833008,316.003998 862.833008,340.984497 862.471313,366.005768 
	C862.471313,366.005768 862.129761,366.131622 861.178223,365.958801 
	C812.516479,365.921387 763.854675,365.874420 715.192932,365.850586 
	C690.028687,365.838257 664.864258,365.831451 639.700684,365.969666 
	C638.266479,365.977509 636.839539,367.322968 635.237610,368.960846 
	C635.327026,391.686005 635.416504,414.411163 635.231812,437.815155 
z"/>
<path fill="#7C2DFB" opacity="1.000000" stroke="none" 
	d="
M862.129761,366.131622 
	C862.129761,366.131622 862.471313,366.005768 863.064819,365.924194 
	C864.101807,364.035858 864.922424,362.230835 864.930969,360.421997 
	C865.023987,340.760193 864.981567,321.097778 865.004700,301.435577 
	C865.006775,299.713959 865.211914,297.992645 865.397339,295.111908 
	C868.200256,296.967224 870.176575,298.071289 871.921204,299.465454 
	C879.430786,305.466431 886.833008,311.602051 894.347351,317.597076 
	C908.465637,328.860657 922.699402,339.980286 936.766541,351.307007 
	C956.646790,367.314240 976.382385,383.501007 996.260437,399.510956 
	C1002.242188,404.328735 1002.380371,405.244781 996.322021,410.124908 
	C982.642517,421.144287 968.986206,432.192780 955.265198,443.160248 
	C928.987976,464.164093 902.681763,485.131775 876.360046,506.079834 
	C873.129272,508.651093 869.729614,511.010193 866.408203,513.467590 
	C865.939941,513.160522 865.471619,512.853455 865.003296,512.546387 
	C865.003296,510.790039 865.003418,509.033691 865.003296,507.277374 
	C865.002197,486.781982 865.047546,466.286316 864.908752,445.791809 
	C864.898132,444.212158 863.591003,442.641266 862.886475,441.066284 
	C862.886475,441.066315 862.997559,441.001617 862.908569,440.648682 
	C860.841125,439.864655 858.862976,439.058594 856.884033,439.056671 
	C786.485107,438.987854 716.086182,438.994537 645.687195,438.989227 
	C644.189453,438.989105 642.533386,439.368134 641.239075,438.850403 
	C639.971252,438.343353 638.196655,436.956970 638.145386,435.884857 
	C637.606934,424.617615 637.237976,413.337708 637.089661,402.057800 
	C636.963684,392.480011 637.182129,382.897583 637.262024,373.317322 
	C637.287659,370.247894 637.756897,367.708099 641.887146,367.937592 
	C643.943970,368.051849 646.043518,367.399506 648.579956,367.081726 
	C688.993652,367.071320 728.950989,367.073090 769.201294,367.338623 
	C772.026855,367.427795 774.559387,367.253235 777.554810,367.076294 
	C796.646790,367.075592 815.275879,367.077271 834.177917,367.333832 
	C836.331909,367.418793 838.212952,367.248840 840.509338,367.076660 
	C842.586731,367.075378 844.248779,367.076355 846.230103,367.351868 
	C851.707764,367.422577 856.866028,367.218750 862.059448,366.795105 
	C862.094482,366.575317 862.129761,366.131622 862.129761,366.131622 
z"/>
<path fill="#7A3FD1" opacity="1.000000" stroke="none" 
	d="
M862.918823,441.529144 
	C863.591003,442.641266 864.898132,444.212158 864.908752,445.791809 
	C865.047546,466.286316 865.002197,486.781982 865.003296,507.277374 
	C865.003418,509.033691 865.003296,510.790039 865.003296,512.546387 
	C865.471619,512.853455 865.939941,513.160522 866.408203,513.467590 
	C869.729614,511.010193 873.129272,508.651093 876.360046,506.079834 
	C902.681763,485.131775 928.987976,464.164093 955.265198,443.160248 
	C968.986206,432.192780 982.642517,421.144287 996.322021,410.124908 
	C1002.380371,405.244781 1002.242188,404.328735 996.260437,399.510956 
	C976.382385,383.501007 956.646790,367.314240 936.766541,351.307007 
	C922.699402,339.980286 908.465637,328.860657 894.347351,317.597076 
	C886.833008,311.602051 879.430786,305.466431 871.921204,299.465454 
	C870.176575,298.071289 868.200256,296.967224 865.397339,295.111908 
	C865.211914,297.992645 865.006775,299.713959 865.004700,301.435577 
	C864.981567,321.097778 865.023987,340.760193 864.930969,360.421997 
	C864.922424,362.230835 864.101807,364.035858 863.245605,365.903809 
	C862.833008,340.984497 862.833008,316.003998 862.833008,289.356812 
	C911.284180,328.144745 958.721130,366.120758 1006.773682,404.589600 
	C958.747498,443.148804 911.425598,481.142578 862.951172,520.061707 
	C862.951172,493.091644 862.951172,467.541840 862.918823,441.529144 
z"/>
<path fill="#7D47CE" opacity="1.000000" stroke="none" 
	d="
M540.192871,264.973663 
	C540.192871,261.180878 540.192871,257.388062 540.192871,253.045303 
	C580.465393,253.045303 620.500427,253.045303 660.535400,253.045303 
	C660.744690,252.650253 660.953979,252.255188 661.163269,251.860138 
	C640.447998,231.784180 619.732666,211.708206 598.696411,191.321228 
	C589.948181,200.097397 580.586243,209.543686 571.163025,218.928543 
	C560.073608,229.972839 548.931091,240.963852 537.399170,251.983337 
	C536.986755,251.988678 536.815002,251.818420 536.879883,251.479126 
	C537.192017,250.538620 537.284180,249.780594 537.709656,249.359390 
	C546.068420,241.084610 554.559387,232.941483 562.831970,224.582031 
	C573.235779,214.068893 583.430969,203.349716 593.789185,192.791031 
	C598.609802,187.877090 600.381958,187.931747 605.294983,192.826736 
	C615.787903,203.281174 626.278870,213.737854 636.712952,224.250854 
	C645.848755,233.455750 654.905762,242.738861 664.175293,252.269928 
	C664.719788,252.805969 665.086609,253.059494 665.453369,253.313019 
	C664.778625,255.175201 663.527649,257.034119 663.517029,258.900085 
	C663.390564,281.016876 663.449280,303.134705 663.459106,325.252258 
	C663.459900,327.040619 663.459229,328.828979 663.459229,331.068787 
	C642.249268,331.068787 621.646057,331.068787 600.523071,331.034912 
	C600.003418,331.001068 599.886536,330.885132 600.025513,330.508789 
	C601.855469,329.760132 603.544861,329.072693 605.237732,329.064178 
	C622.040588,328.979431 638.845032,328.903534 655.646545,329.076050 
	C659.804016,329.118774 661.200867,327.700714 661.108154,323.578491 
	C660.887024,313.749451 661.039307,303.912018 661.038696,294.077972 
	C661.038025,283.097626 660.822754,272.111298 661.130737,261.139648 
	C661.266541,256.299194 659.665588,254.873581 654.871094,254.897202 
	C619.768005,255.070236 584.663147,255.091553 549.560547,254.878830 
	C544.759155,254.849731 542.402832,256.333252 541.720276,261.228516 
	C541.303162,262.635620 541.155273,263.809692 540.803711,264.981903 
	C540.600098,264.980011 540.192871,264.973663 540.192871,264.973663 
z"/>
<path fill="#7641C9" opacity="1.000000" stroke="none" 
	d="
M596.944946,131.249496 
	C597.417969,131.199799 597.891052,131.150101 599.039551,131.418579 
	C600.537415,131.825928 601.359802,131.993057 602.182129,131.993195 
	C669.345398,132.004608 736.508728,132.007965 803.671997,131.968796 
	C805.099670,131.967972 806.527100,131.466095 807.954651,131.197937 
	C811.630188,130.311401 811.111389,132.915298 811.113647,135.030197 
	C811.129272,149.993713 811.137146,164.957245 811.134399,179.920761 
	C811.130249,202.532318 811.121399,225.143890 811.092712,247.755432 
	C811.090576,249.405838 810.911194,251.056015 810.364502,252.577576 
	C809.870667,252.222122 809.826599,251.995377 809.840637,251.327545 
	C809.916687,213.890472 809.936768,176.894455 809.950439,139.898453 
	C809.952881,133.261795 809.691895,133.003143 802.785461,133.002930 
	C667.632080,132.998901 532.478638,132.998657 397.325256,133.002441 
	C390.544037,133.002625 390.011627,133.560287 390.011108,140.510849 
	C390.008759,173.007660 390.032715,205.504517 389.973236,238.001205 
	C389.968414,240.627380 389.404510,243.252518 389.067719,246.316162 
	C389.073059,248.213852 389.111053,249.673523 389.177094,251.283417 
	C389.205139,251.433609 389.304382,251.722610 389.213318,252.072083 
	C389.068848,252.656326 389.015442,252.891098 388.962036,253.125854 
	C388.627319,251.939941 388.001465,250.754364 388.000061,249.568054 
	C387.954590,211.090759 387.967987,172.613373 387.984222,134.136017 
	C387.984558,133.330536 388.122192,132.525101 388.253265,131.090683 
	C421.633118,131.090683 454.882904,131.090683 488.923889,131.413757 
	C490.370453,131.825531 491.025787,131.991531 491.681213,131.991837 
	C520.500427,132.005020 549.319702,132.013153 578.138855,131.971939 
	C579.407104,131.970123 580.674744,131.500916 581.942627,131.249420 
	C585.013367,131.196320 588.084045,131.143204 591.856201,131.388870 
	C594.020020,131.541611 595.482483,131.395554 596.944946,131.249496 
z"/>
<path fill="#7641C9" opacity="1.000000" stroke="none" 
	d="
M662.939575,481.818695 
	C663.064697,517.096802 663.217773,552.374878 663.218201,587.652954 
	C663.218201,589.146729 662.193848,591.188721 660.986450,592.054810 
	C622.731750,619.496460 584.395264,646.824097 545.618164,674.158264 
	C545.165161,674.147522 544.906982,673.902832 544.985107,673.574951 
	C555.202148,665.826660 565.287659,658.332092 575.490173,651.000244 
	C602.686279,631.456299 629.902161,611.939209 657.209106,592.550903 
	C659.786987,590.720581 661.095764,588.969971 661.086609,585.717285 
	C660.990723,551.735596 660.978821,517.753296 661.099426,483.771729 
	C661.112366,480.116150 660.136475,478.908783 656.341309,478.880035 
	C637.887268,478.740234 619.435486,478.296783 601.289551,477.678223 
	C603.073120,477.273560 604.550049,477.046478 606.027100,477.045380 
	C624.634583,477.031738 643.242065,477.050690 661.849548,477.061340 
	C661.849548,477.061340 661.930359,476.994751 662.113403,477.354218 
	C662.510742,479.082031 662.725159,480.450348 662.939575,481.818695 
z"/>
<path fill="#7A3FD1" opacity="1.000000" stroke="none" 
	d="
M648.123718,367.093933 
	C646.043518,367.399506 643.943970,368.051849 641.887146,367.937592 
	C637.756897,367.708099 637.287659,370.247894 637.262024,373.317322 
	C637.182129,382.897583 636.963684,392.480011 637.089661,402.057800 
	C637.237976,413.337708 637.606934,424.617615 638.145386,435.884857 
	C638.196655,436.956970 639.971252,438.343353 641.239075,438.850403 
	C642.533386,439.368134 644.189453,438.989105 645.687195,438.989227 
	C716.086182,438.994537 786.485107,438.987854 856.884033,439.056671 
	C858.862976,439.058594 860.841125,439.864655 862.877075,440.704590 
	C860.244690,441.067871 857.554932,441.022278 854.102539,440.653778 
	C852.525208,440.227661 851.710571,440.034943 850.895874,440.034241 
	C828.196716,440.015259 805.497620,440.003174 782.798523,440.046539 
	C781.541931,440.048950 780.286316,440.537750 779.030212,440.800140 
	C777.620728,440.842285 776.211304,440.884399 774.060913,440.612061 
	C772.667542,440.204041 772.015137,440.028809 771.362671,440.028564 
	C729.179199,440.013275 686.995728,440.005310 644.812256,440.042511 
	C643.552246,440.043640 642.292664,440.530762 641.032837,440.791260 
	C639.967834,440.828033 638.902893,440.864838 637.398682,440.549927 
	C636.474976,439.177612 635.990479,438.156952 635.505981,437.136322 
	C635.416504,414.411163 635.327026,391.686005 635.699341,368.409790 
	C640.148621,367.603821 644.136169,367.348877 648.123718,367.093933 
z"/>
<path fill="#7A4EB1" opacity="1.000000" stroke="none" 
	d="
M540.113159,265.439392 
	C540.192871,264.973663 540.600098,264.980011 540.801392,265.442444 
	C541.040161,269.288788 541.077576,272.672668 541.110168,276.476837 
	C541.106750,278.578766 541.108154,280.260376 541.069946,282.377686 
	C541.055969,284.560791 541.081665,286.308228 541.102051,288.520721 
	C541.099731,310.304749 541.102722,331.623749 541.066956,353.367950 
	C541.054321,355.214142 541.080505,356.635101 541.101501,358.521118 
	C541.090515,457.945892 541.084656,556.905701 541.078918,655.865479 
	C541.078735,659.863831 540.758240,663.899109 541.210022,667.845825 
	C541.454651,669.982910 543.017883,671.969055 543.984863,674.273682 
	C543.978638,674.857605 543.973877,675.191223 543.969116,675.524780 
	C542.974915,676.312439 541.980652,677.100159 540.383118,678.365845 
	C540.192444,676.255188 539.956360,674.863037 539.956482,673.470886 
	C539.970520,537.615662 540.002563,401.760406 540.113159,265.439392 
z"/>
<path fill="#7D47CE" opacity="1.000000" stroke="none" 
	d="
M661.485229,476.926819 
	C643.242065,477.050690 624.634583,477.031738 606.027100,477.045380 
	C604.550049,477.046478 603.073120,477.273560 600.899780,477.634277 
	C599.474426,476.380707 598.112000,474.890106 598.108215,473.396027 
	C597.991211,427.236786 597.991272,381.077148 598.081665,334.917786 
	C598.084290,333.572388 599.258545,332.229309 599.886536,330.885132 
	C599.886536,330.885132 600.003418,331.001068 600.062622,331.058289 
	C600.121887,379.318420 600.121887,427.521301 600.121887,476.792328 
	C620.676270,476.792328 640.898621,476.792328 661.485229,476.926819 
z"/>
<path fill="#8B5CC9" opacity="1.000000" stroke="none" 
	d="
M648.579956,367.081726 
	C644.136169,367.348877 640.148621,367.603821 635.785156,367.952332 
	C636.839539,367.322968 638.266479,365.977509 639.700684,365.969666 
	C664.864258,365.831451 690.028687,365.838257 715.192932,365.850586 
	C763.854675,365.874420 812.516479,365.921387 861.653992,366.045227 
	C862.129761,366.131622 862.094482,366.575317 861.590210,366.785553 
	C856.027588,367.022980 850.969177,367.050140 845.910828,367.077332 
	C844.248779,367.076355 842.586731,367.075378 840.066772,367.043030 
	C837.440918,367.034088 835.672974,367.056519 833.904968,367.078918 
	C815.275879,367.077271 796.646790,367.075592 777.099487,367.043396 
	C773.756958,367.033539 771.332642,367.054230 768.908386,367.074890 
	C728.950989,367.073090 688.993652,367.071320 648.579956,367.081726 
z"/>
<path fill="#7D47CE" opacity="1.000000" stroke="none" 
	d="
M807.496521,131.111313 
	C806.527100,131.466095 805.099670,131.967972 803.671997,131.968796 
	C736.508728,132.007965 669.345398,132.004608 602.182129,131.993195 
	C601.359802,131.993057 600.537415,131.825928 599.390503,131.492859 
	C600.059692,131.173141 601.053467,131.031097 602.047241,131.030960 
	C670.377625,131.021606 738.708008,131.023621 807.496521,131.111313 
z"/>
<path fill="#7641C9" opacity="1.000000" stroke="none" 
	d="
M528.666748,253.104797 
	C511.709351,253.208801 494.752045,253.382614 477.794556,253.401123 
	C449.186981,253.432343 420.579346,253.365143 391.485840,252.963135 
	C390.987793,252.386139 390.975586,252.185333 391.436157,251.976868 
	C439.951508,251.965225 487.994080,251.961227 536.031494,252.235626 
	C536.032349,252.699539 536.038330,252.885086 536.044250,253.070618 
	C536.044250,253.070618 536.024109,252.994293 535.592773,252.996307 
	C532.996521,253.033798 530.831604,253.069290 528.666748,253.104797 
z"/>
<path fill="#7641C9" opacity="1.000000" stroke="none" 
	d="
M665.879028,253.398407 
	C665.086609,253.059494 664.719788,252.805969 664.644409,252.266235 
	C711.625732,251.979828 758.315613,251.979630 804.997742,252.273193 
	C804.979736,252.762573 804.969604,252.958206 804.959473,253.153839 
	C798.393555,253.208969 791.827698,253.264084 784.322510,253.174072 
	C772.789551,253.056702 762.195801,253.084457 751.602051,253.112213 
	C734.812012,253.217331 718.022034,253.342392 701.231812,253.420731 
	C689.589600,253.475052 677.947083,253.465057 665.879028,253.398407 
z"/>
<path fill="#8B5CC9" opacity="1.000000" stroke="none" 
	d="
M641.489868,440.888031 
	C642.292664,440.530762 643.552246,440.043640 644.812256,440.042511 
	C686.995728,440.005310 729.179199,440.013275 771.362671,440.028564 
	C772.015137,440.028809 772.667542,440.204041 773.641785,440.549255 
	C767.658997,440.879761 761.354370,441.025879 755.049805,441.026642 
	C717.348877,441.031250 679.647888,441.002411 641.489868,440.888031 
z"/>
<path fill="#7D47CE" opacity="1.000000" stroke="none" 
	d="
M581.486206,131.158112 
	C580.674744,131.500916 579.407104,131.970123 578.138855,131.971939 
	C549.319702,132.013153 520.500427,132.005020 491.681213,131.991837 
	C491.025787,131.991531 490.370453,131.825531 489.390503,131.492828 
	C511.555695,131.172546 534.045410,131.084946 556.535095,131.025879 
	C564.699951,131.004440 572.864929,131.051163 581.486206,131.158112 
z"/>
<path fill="#8B5CC9" opacity="1.000000" stroke="none" 
	d="
M779.488159,440.893433 
	C780.286316,440.537750 781.541931,440.048950 782.798523,440.046539 
	C805.497620,440.003174 828.196716,440.015259 850.895874,440.034241 
	C851.710571,440.034943 852.525208,440.227661 853.656494,440.591736 
	C829.297424,440.897278 804.621704,440.942017 779.488159,440.893433 
z"/>
<path fill="#7D47CE" opacity="1.000000" stroke="none" 
	d="
M752.011841,253.273499 
	C762.195801,253.084457 772.789551,253.056702 783.888428,253.070221 
	C773.736267,253.219269 763.078979,253.327026 752.011841,253.273499 
z"/>
<path fill="#7D47CE" opacity="1.000000" stroke="none" 
	d="
M805.253967,253.293671 
	C804.969604,252.958206 804.979736,252.762573 805.207764,252.026825 
	C806.877869,251.580688 808.330139,251.674667 809.782471,251.768631 
	C809.826599,251.995377 809.870667,252.222122 809.973694,252.790344 
	C808.537903,253.232391 807.043152,253.332962 805.253967,253.293671 
z"/>
<path fill="#7D47CE" opacity="1.000000" stroke="none" 
	d="
M529.026855,253.249954 
	C530.831604,253.069290 532.996521,253.033798 535.618286,253.026489 
	C533.845764,253.168137 531.616333,253.281631 529.026855,253.249954 
z"/>
<path fill="#8B5CC9" opacity="1.000000" stroke="none" 
	d="
M635.368896,437.475739 
	C635.990479,438.156952 636.474976,439.177612 637.003296,440.484619 
	C636.442078,439.785706 635.836914,438.800446 635.368896,437.475739 
z"/>
<path fill="#7D47CE" opacity="1.000000" stroke="none" 
	d="
M663.060547,481.536133 
	C662.725159,480.450348 662.510742,479.082031 662.146484,477.394775 
	C662.391479,478.468475 662.786499,479.861053 663.060547,481.536133 
z"/>
<path fill="#7D47CE" opacity="1.000000" stroke="none" 
	d="
M596.544556,131.160110 
	C595.482483,131.395554 594.020020,131.541611 592.310242,131.468216 
	C593.423340,131.189438 594.783752,131.130081 596.544556,131.160110 
z"/>
<path fill="#7D47CE" opacity="1.000000" stroke="none" 
	d="
M390.963379,251.984528 
	C390.975586,252.185333 390.987793,252.386139 391.025208,252.887726 
	C390.473938,253.262222 389.897461,253.335953 389.141510,253.267761 
	C389.015442,252.891098 389.068848,252.656326 389.482300,252.144409 
	C390.216003,251.906357 390.589691,251.945450 390.963379,251.984528 
z"/>
<path fill="#7641C9" opacity="1.000000" stroke="none" 
	d="
M544.196289,675.448486 
	C543.973877,675.191223 543.978638,674.857605 544.214600,674.239624 
	C544.445801,673.955200 544.906982,673.902832 544.906982,673.902832 
	C544.906982,673.902832 545.165161,674.147522 545.296143,674.269165 
	C545.092529,674.717957 544.757935,675.045044 544.196289,675.448486 
z"/>
<path fill="#7D47CE" opacity="1.000000" stroke="none" 
	d="
M536.313171,253.057800 
	C536.038330,252.885086 536.032349,252.699539 536.227417,252.209564 
	C536.428345,251.905106 536.815002,251.818420 536.815002,251.818420 
	C536.815002,251.818420 536.986755,251.988678 537.072449,252.074478 
	C536.966125,252.455170 536.774109,252.750076 536.313171,253.057800 
z"/>
<path fill="#7A3FD1" opacity="1.000000" stroke="none" 
	d="
M846.230103,367.351868 
	C850.969177,367.050140 856.027588,367.022980 861.555176,367.005341 
	C856.866028,367.218750 851.707764,367.422577 846.230103,367.351868 
z"/>
<path fill="#7A3FD1" opacity="1.000000" stroke="none" 
	d="
M769.201294,367.338623 
	C771.332642,367.054230 773.756958,367.033539 776.636597,367.045776 
	C774.559387,367.253235 772.026855,367.427795 769.201294,367.338623 
z"/>
<path fill="#7A3FD1" opacity="1.000000" stroke="none" 
	d="
M834.177917,367.333832 
	C835.672974,367.056519 837.440918,367.034088 839.651489,367.045288 
	C838.212952,367.248840 836.331909,367.418793 834.177917,367.333832 
z"/>
<path fill="#7B2DFA" opacity="1.000000" stroke="none" 
	d="
M536.879883,251.479126 
	C536.815002,251.818420 536.428345,251.905106 536.232483,251.931168 
	C487.994080,251.961227 439.951508,251.965225 391.436157,251.976868 
	C390.589691,251.945450 390.216003,251.906357 389.573364,251.794937 
	C389.304382,251.722610 389.205139,251.433609 389.408173,251.009338 
	C389.440948,249.016098 389.270660,247.447113 389.100403,245.878143 
	C389.404510,243.252518 389.968414,240.627380 389.973236,238.001205 
	C390.032715,205.504517 390.008759,173.007660 390.011108,140.510849 
	C390.011627,133.560287 390.544037,133.002625 397.325256,133.002441 
	C532.478638,132.998657 667.632080,132.998901 802.785461,133.002930 
	C809.691895,133.003143 809.952881,133.261795 809.950439,139.898453 
	C809.936768,176.894455 809.916687,213.890472 809.840637,251.327545 
	C808.330139,251.674667 806.877869,251.580688 805.215576,251.733078 
	C758.315613,251.979630 711.625732,251.979828 664.466675,251.983734 
	C654.905762,242.738861 645.848755,233.455750 636.712952,224.250854 
	C626.278870,213.737854 615.787903,203.281174 605.294983,192.826736 
	C600.381958,187.931747 598.609802,187.877090 593.789185,192.791031 
	C583.430969,203.349716 573.235779,214.068893 562.831970,224.582031 
	C554.559387,232.941483 546.068420,241.084610 537.709656,249.359390 
	C537.284180,249.780594 537.192017,250.538620 536.879883,251.479126 
z"/>
<path fill="#7B2DFB" opacity="1.000000" stroke="none" 
	d="
M544.985107,673.574951 
	C544.906982,673.902832 544.445801,673.955200 544.216064,673.989258 
	C543.017883,671.969055 541.454651,669.982910 541.210022,667.845825 
	C540.758240,663.899109 541.078735,659.863831 541.078918,655.865479 
	C541.084656,556.905701 541.090515,457.945892 541.347656,358.269257 
	C541.434509,356.015839 541.270081,354.479309 541.105713,352.942749 
	C541.102722,331.623749 541.099731,310.304749 541.353638,288.253357 
	C541.443604,285.661285 541.276550,283.801666 541.109497,281.942017 
	C541.108154,280.260376 541.106750,278.578766 541.379150,276.160217 
	C541.765137,270.614014 541.877258,265.804779 541.989441,260.995514 
	C542.402832,256.333252 544.759155,254.849731 549.560547,254.878830 
	C584.663147,255.091553 619.768005,255.070236 654.871094,254.897202 
	C659.665588,254.873581 661.266541,256.299194 661.130737,261.139648 
	C660.822754,272.111298 661.038025,283.097626 661.038696,294.077972 
	C661.039307,303.912018 660.887024,313.749451 661.108154,323.578491 
	C661.200867,327.700714 659.804016,329.118774 655.646545,329.076050 
	C638.845032,328.903534 622.040588,328.979431 605.237732,329.064178 
	C603.544861,329.072693 601.855469,329.760132 600.025513,330.508789 
	C599.258545,332.229309 598.084290,333.572388 598.081665,334.917786 
	C597.991272,381.077148 597.991211,427.236786 598.108215,473.396027 
	C598.112000,474.890106 599.474426,476.380707 600.593201,477.916870 
	C619.435486,478.296783 637.887268,478.740234 656.341309,478.880035 
	C660.136475,478.908783 661.112366,480.116150 661.099426,483.771729 
	C660.978821,517.753296 660.990723,551.735596 661.086609,585.717285 
	C661.095764,588.969971 659.786987,590.720581 657.209106,592.550903 
	C629.902161,611.939209 602.686279,631.456299 575.490173,651.000244 
	C565.287659,658.332092 555.202148,665.826660 544.985107,673.574951 
z"/>
<path fill="#7A3FD1" opacity="1.000000" stroke="none" 
	d="
M541.720276,261.228516 
	C541.877258,265.804779 541.765137,270.614014 541.383911,275.739929 
	C541.077576,272.672668 541.040161,269.288788 541.005005,265.444336 
	C541.155273,263.809692 541.303162,262.635620 541.720276,261.228516 
z"/>
<path fill="#7D47CE" opacity="1.000000" stroke="none" 
	d="
M389.067749,246.316162 
	C389.270660,247.447113 389.440948,249.016098 389.380127,250.859131 
	C389.111053,249.673523 389.073059,248.213852 389.067749,246.316162 
z"/>
<path fill="#7A3FD1" opacity="1.000000" stroke="none" 
	d="
M541.069946,282.377686 
	C541.276550,283.801666 541.443604,285.661285 541.358948,287.788330 
	C541.081665,286.308228 541.055969,284.560791 541.069946,282.377686 
z"/>
<path fill="#7A3FD1" opacity="1.000000" stroke="none" 
	d="
M541.066956,353.367950 
	C541.270081,354.479309 541.434509,356.015839 541.352783,357.804260 
	C541.080505,356.635101 541.054321,355.214142 541.066956,353.367950 
z"/>
</svg>